# xmcd CD database file
#
# Track frame offsets:
#	150
#	23900
#	43118
#	68642
#	91010
#	107437
#	132880
#	155177
#	171522
#	196079
#	223265
#
# Disc length: 3182 seconds
#
# Revision: 3
# Processed by: cddbd v1.5.2PL0 Copyright (c) Steve Scherf et al.
# Submitted via: CDex 1.51
#
DISCID=960c6c0b
DTITLE=Johanna Romin Band - When lights are low
DYEAR=2011
DGENRE=Jazz
TTITLE0=Round midnight
TTITLE1=Glue to my heart
TTITLE2=But beautiful
TTITLE3=Gentle rain
TTITLE4=Drömmar om sommaren
TTITLE5=Better than anything
TTITLE6=Nature boy
TTITLE7=Never will I marry
TTITLE8=Chrystal silence
TTITLE9=When my anger starts to cry
TTITLE10=When lights are low
EXTD=YEAR: 2011
EXTT0=
EXTT1=
EXTT2=
EXTT3=
EXTT4=
EXTT5=
EXTT6=
EXTT7=
EXTT8=
EXTT9=
EXTT10=
PLAYORDER=
